<?xml version="1.0" encoding="utf-8" standalone="no"?>
<!DOCTYPE svg PUBLIC "-//W3C//DTD SVG 1.1//EN"
  "http://www.w3.org/Graphics/SVG/1.1/DTD/svg11.dtd">
<svg xmlns:xlink="http://www.w3.org/1999/xlink" width="614.3675pt" height="161.060781pt" viewBox="0 0 614.3675 161.060781" xmlns="http://www.w3.org/2000/svg" version="1.1">
 <metadata>
  <rdf:RDF xmlns:dc="http://purl.org/dc/elements/1.1/" xmlns:cc="http://creativecommons.org/ns#" xmlns:rdf="http://www.w3.org/1999/02/22-rdf-syntax-ns#">
   <cc:Work>
    <dc:type rdf:resource="http://purl.org/dc/dcmitype/StillImage"/>
    <dc:date>2026-03-11T13:32:45.775009</dc:date>
    <dc:format>image/svg+xml</dc:format>
    <dc:creator>
     <cc:Agent>
      <dc:title>Matplotlib v3.10.8, https://matplotlib.org/</dc:title>
     </cc:Agent>
    </dc:creator>
   </cc:Work>
  </rdf:RDF>
 </metadata>
 <defs>
  <style type="text/css">*{stroke-linejoin: round; stroke-linecap: butt}</style>
 </defs>
 <g id="figure_1">
  <g id="patch_1">
   <path d="M 0 161.060781 
L 614.3675 161.060781 
L 614.3675 0 
L 0 0 
z
" style="fill: #0d1117"/>
  </g>
  <g id="axes_1">
   <g id="patch_2">
    <path d="M 34.8675 139.118281 
L 607.1675 139.118281 
L 607.1675 23.558281 
L 34.8675 23.558281 
z
" style="fill: #0d1117"/>
   </g>
   <g id="FillBetweenPolyCollection_1">
    <defs>
     <path id="m7367e8b3f5" d="M 60.881136 -132.249773 
L 60.881136 -132.249773 
L 63.724157 -131.766373 
L 66.567177 -132.249773 
L 75.096238 -132.249773 
L 77.939259 -130.945186 
L 80.782279 -129.642926 
L 83.625299 -132.249773 
L 86.46832 -132.249773 
L 94.997381 -128.929916 
L 97.840401 -132.249773 
L 100.683422 -128.981785 
L 103.526442 -125.707798 
L 106.369462 -128.457328 
L 114.898523 -112.849237 
L 117.741544 -99.128511 
L 120.584564 -95.188861 
L 123.427584 -87.595287 
L 126.270605 -90.792613 
L 134.799666 -84.093826 
L 137.642686 -73.404434 
L 140.485707 -85.655143 
L 143.328727 -84.496082 
L 146.171747 -85.696622 
L 154.700808 -74.883571 
L 157.543829 -71.214097 
L 160.386849 -72.735309 
L 163.22987 -64.278922 
L 166.07289 -67.854978 
L 174.601951 -63.779344 
L 177.444971 -62.14006 
L 180.287992 -58.088718 
L 183.131012 -73.074383 
L 185.974033 -73.615006 
L 194.503094 -65.886973 
L 197.346114 -72.971689 
L 200.189134 -63.959878 
L 203.032155 -66.230897 
L 205.875175 -51.512834 
L 214.404236 -41.945947 
L 217.247257 -44.055711 
L 220.090277 -50.284777 
L 222.933297 -52.224769 
L 225.776318 -51.964831 
L 234.305379 -50.280546 
L 237.148399 -39.57864 
L 239.99142 -34.765029 
L 242.83444 -31.927062 
L 245.67746 -40.423978 
L 254.206521 -43.637656 
L 257.049542 -30.878549 
L 259.892562 -33.902048 
L 262.735582 -31.632997 
L 265.578603 -27.195227 
L 274.107664 -32.332856 
L 276.950684 -40.639855 
L 279.793705 -48.295039 
L 282.636725 -42.508192 
L 285.479745 -40.78528 
L 294.008807 -43.907272 
L 296.851827 -51.934936 
L 299.694847 -48.88306 
L 302.537868 -48.089001 
L 305.380888 -40.263587 
L 313.909949 -31.847646 
L 316.752969 -38.519001 
L 319.59599 -49.351723 
L 322.43901 -49.426775 
L 325.282031 -57.732822 
L 333.811092 -61.167034 
L 336.654112 -56.783416 
L 339.497132 -60.211138 
L 342.340153 -72.799831 
L 345.183173 -73.163627 
L 353.712234 -86.19368 
L 356.555255 -65.744835 
L 359.398275 -72.823106 
L 362.241295 -74.158868 
L 365.084316 -72.437661 
L 373.613377 -73.809974 
L 376.456397 -58.714367 
L 379.299418 -57.645307 
L 382.142438 -61.044067 
L 384.985458 -73.179652 
L 393.514519 -69.725506 
L 396.35754 -64.0021 
L 399.20056 -60.721035 
L 402.04358 -68.476521 
L 404.886601 -71.704586 
L 413.415662 -68.166775 
L 416.258682 -72.843557 
L 419.101703 -74.258703 
L 421.944723 -82.584693 
L 424.787743 -77.611895 
L 433.316805 -75.654263 
L 436.159825 -73.190136 
L 439.002845 -62.255024 
L 441.845866 -65.200667 
L 444.688886 -67.884125 
L 453.217947 -68.567051 
L 456.060967 -67.365766 
L 458.903988 -56.897118 
L 461.747008 -54.276276 
L 464.590029 -52.265754 
L 473.11909 -46.729678 
L 475.96211 -46.123881 
L 478.80513 -49.824519 
L 481.648151 -64.894003 
L 484.491171 -66.89979 
L 493.020232 -69.56216 
L 495.863253 -69.620212 
L 498.706273 -55.154217 
L 501.549293 -55.580938 
L 504.392314 -56.677631 
L 512.921375 -76.357631 
L 515.764395 -75.478915 
L 518.607416 -78.522622 
L 521.450436 -78.898198 
L 524.293456 -70.22826 
L 532.822517 -79.880492 
L 535.665538 -86.540378 
L 538.508558 -93.576524 
L 541.351578 -86.84134 
L 544.194599 -98.813889 
L 552.72366 -87.994735 
L 555.56668 -93.395701 
L 558.409701 -111.884114 
L 561.252721 -104.305498 
L 564.095741 -100.305377 
L 572.624803 -101.795701 
L 575.467823 -98.325913 
L 578.310843 -86.294958 
L 581.153864 -87.506792 
L 581.153864 -132.249773 
L 581.153864 -132.249773 
L 578.310843 -132.249773 
L 575.467823 -132.249773 
L 572.624803 -132.249773 
L 564.095741 -132.249773 
L 561.252721 -132.249773 
L 558.409701 -132.249773 
L 555.56668 -132.249773 
L 552.72366 -132.249773 
L 544.194599 -132.249773 
L 541.351578 -132.249773 
L 538.508558 -132.249773 
L 535.665538 -132.249773 
L 532.822517 -132.249773 
L 524.293456 -132.249773 
L 521.450436 -132.249773 
L 518.607416 -132.249773 
L 515.764395 -132.249773 
L 512.921375 -132.249773 
L 504.392314 -132.249773 
L 501.549293 -132.249773 
L 498.706273 -132.249773 
L 495.863253 -132.249773 
L 493.020232 -132.249773 
L 484.491171 -132.249773 
L 481.648151 -132.249773 
L 478.80513 -132.249773 
L 475.96211 -132.249773 
L 473.11909 -132.249773 
L 464.590029 -132.249773 
L 461.747008 -132.249773 
L 458.903988 -132.249773 
L 456.060967 -132.249773 
L 453.217947 -132.249773 
L 444.688886 -132.249773 
L 441.845866 -132.249773 
L 439.002845 -132.249773 
L 436.159825 -132.249773 
L 433.316805 -132.249773 
L 424.787743 -132.249773 
L 421.944723 -132.249773 
L 419.101703 -132.249773 
L 416.258682 -132.249773 
L 413.415662 -132.249773 
L 404.886601 -132.249773 
L 402.04358 -132.249773 
L 399.20056 -132.249773 
L 396.35754 -132.249773 
L 393.514519 -132.249773 
L 384.985458 -132.249773 
L 382.142438 -132.249773 
L 379.299418 -132.249773 
L 376.456397 -132.249773 
L 373.613377 -132.249773 
L 365.084316 -132.249773 
L 362.241295 -132.249773 
L 359.398275 -132.249773 
L 356.555255 -132.249773 
L 353.712234 -132.249773 
L 345.183173 -132.249773 
L 342.340153 -132.249773 
L 339.497132 -132.249773 
L 336.654112 -132.249773 
L 333.811092 -132.249773 
L 325.282031 -132.249773 
L 322.43901 -132.249773 
L 319.59599 -132.249773 
L 316.752969 -132.249773 
L 313.909949 -132.249773 
L 305.380888 -132.249773 
L 302.537868 -132.249773 
L 299.694847 -132.249773 
L 296.851827 -132.249773 
L 294.008807 -132.249773 
L 285.479745 -132.249773 
L 282.636725 -132.249773 
L 279.793705 -132.249773 
L 276.950684 -132.249773 
L 274.107664 -132.249773 
L 265.578603 -132.249773 
L 262.735582 -132.249773 
L 259.892562 -132.249773 
L 257.049542 -132.249773 
L 254.206521 -132.249773 
L 245.67746 -132.249773 
L 242.83444 -132.249773 
L 239.99142 -132.249773 
L 237.148399 -132.249773 
L 234.305379 -132.249773 
L 225.776318 -132.249773 
L 222.933297 -132.249773 
L 220.090277 -132.249773 
L 217.247257 -132.249773 
L 214.404236 -132.249773 
L 205.875175 -132.249773 
L 203.032155 -132.249773 
L 200.189134 -132.249773 
L 197.346114 -132.249773 
L 194.503094 -132.249773 
L 185.974033 -132.249773 
L 183.131012 -132.249773 
L 180.287992 -132.249773 
L 177.444971 -132.249773 
L 174.601951 -132.249773 
L 166.07289 -132.249773 
L 163.22987 -132.249773 
L 160.386849 -132.249773 
L 157.543829 -132.249773 
L 154.700808 -132.249773 
L 146.171747 -132.249773 
L 143.328727 -132.249773 
L 140.485707 -132.249773 
L 137.642686 -132.249773 
L 134.799666 -132.249773 
L 126.270605 -132.249773 
L 123.427584 -132.249773 
L 120.584564 -132.249773 
L 117.741544 -132.249773 
L 114.898523 -132.249773 
L 106.369462 -132.249773 
L 103.526442 -132.249773 
L 100.683422 -132.249773 
L 97.840401 -132.249773 
L 94.997381 -132.249773 
L 86.46832 -132.249773 
L 83.625299 -132.249773 
L 80.782279 -132.249773 
L 77.939259 -132.249773 
L 75.096238 -132.249773 
L 66.567177 -132.249773 
L 63.724157 -132.249773 
L 60.881136 -132.249773 
z
" style="stroke: #f85149; stroke-opacity: 0.35"/>
    </defs>
    <g clip-path="url(#p737a474174)">
     <use xlink:href="#m7367e8b3f5" x="0" y="161.060781" style="fill: #f85149; fill-opacity: 0.35; stroke: #f85149; stroke-opacity: 0.35"/>
    </g>
   </g>
   <g id="matplotlib.axis_1">
    <g id="xtick_1">
     <g id="line2d_1">
      <defs>
       <path id="m7121131945" d="M 0 0 
L 0 3.5 
" style="stroke: #8b949e; stroke-width: 0.8"/>
      </defs>
      <g>
       <use xlink:href="#m7121131945" x="60.881136" y="139.118281" style="fill: #8b949e; stroke: #8b949e; stroke-width: 0.8"/>
      </g>
     </g>
     <g id="text_1">
      <!-- 2025-10 -->
      <g style="fill: #8b949e" transform="translate(44.168011 152.197031) scale(0.08 -0.08)">
       <defs>
        <path id="DejaVuSans-32" d="M 1228 531 
L 3431 531 
L 3431 0 
L 469 0 
L 469 531 
Q 828 903 1448 1529 
Q 2069 2156 2228 2338 
Q 2531 2678 2651 2914 
Q 2772 3150 2772 3378 
Q 2772 3750 2511 3984 
Q 2250 4219 1831 4219 
Q 1534 4219 1204 4116 
Q 875 4013 500 3803 
L 500 4441 
Q 881 4594 1212 4672 
Q 1544 4750 1819 4750 
Q 2544 4750 2975 4387 
Q 3406 4025 3406 3419 
Q 3406 3131 3298 2873 
Q 3191 2616 2906 2266 
Q 2828 2175 2409 1742 
Q 1991 1309 1228 531 
z
" transform="scale(0.015625)"/>
        <path id="DejaVuSans-30" d="M 2034 4250 
Q 1547 4250 1301 3770 
Q 1056 3291 1056 2328 
Q 1056 1369 1301 889 
Q 1547 409 2034 409 
Q 2525 409 2770 889 
Q 3016 1369 3016 2328 
Q 3016 3291 2770 3770 
Q 2525 4250 2034 4250 
z
M 2034 4750 
Q 2819 4750 3233 4129 
Q 3647 3509 3647 2328 
Q 3647 1150 3233 529 
Q 2819 -91 2034 -91 
Q 1250 -91 836 529 
Q 422 1150 422 2328 
Q 422 3509 836 4129 
Q 1250 4750 2034 4750 
z
" transform="scale(0.015625)"/>
        <path id="DejaVuSans-35" d="M 691 4666 
L 3169 4666 
L 3169 4134 
L 1269 4134 
L 1269 2991 
Q 1406 3038 1543 3061 
Q 1681 3084 1819 3084 
Q 2600 3084 3056 2656 
Q 3513 2228 3513 1497 
Q 3513 744 3044 326 
Q 2575 -91 1722 -91 
Q 1428 -91 1123 -41 
Q 819 9 494 109 
L 494 744 
Q 775 591 1075 516 
Q 1375 441 1709 441 
Q 2250 441 2565 725 
Q 2881 1009 2881 1497 
Q 2881 1984 2565 2268 
Q 2250 2553 1709 2553 
Q 1456 2553 1204 2497 
Q 953 2441 691 2322 
L 691 4666 
z
" transform="scale(0.015625)"/>
        <path id="DejaVuSans-2d" d="M 313 2009 
L 1997 2009 
L 1997 1497 
L 313 1497 
L 313 2009 
z
" transform="scale(0.015625)"/>
        <path id="DejaVuSans-31" d="M 794 531 
L 1825 531 
L 1825 4091 
L 703 3866 
L 703 4441 
L 1819 4666 
L 2450 4666 
L 2450 531 
L 3481 531 
L 3481 0 
L 794 0 
L 794 531 
z
" transform="scale(0.015625)"/>
       </defs>
       <use xlink:href="#DejaVuSans-32"/>
       <use xlink:href="#DejaVuSans-30" transform="translate(63.623047 0)"/>
       <use xlink:href="#DejaVuSans-32" transform="translate(127.246094 0)"/>
       <use xlink:href="#DejaVuSans-35" transform="translate(190.869141 0)"/>
       <use xlink:href="#DejaVuSans-2d" transform="translate(254.492188 0)"/>
       <use xlink:href="#DejaVuSans-31" transform="translate(290.576172 0)"/>
       <use xlink:href="#DejaVuSans-30" transform="translate(354.199219 0)"/>
      </g>
     </g>
    </g>
    <g id="xtick_2">
     <g id="line2d_2">
      <g>
       <use xlink:href="#m7121131945" x="149.014768" y="139.118281" style="fill: #8b949e; stroke: #8b949e; stroke-width: 0.8"/>
      </g>
     </g>
     <g id="text_2">
      <!-- 2025-11 -->
      <g style="fill: #8b949e" transform="translate(132.301643 152.197031) scale(0.08 -0.08)">
       <use xlink:href="#DejaVuSans-32"/>
       <use xlink:href="#DejaVuSans-30" transform="translate(63.623047 0)"/>
       <use xlink:href="#DejaVuSans-32" transform="translate(127.246094 0)"/>
       <use xlink:href="#DejaVuSans-35" transform="translate(190.869141 0)"/>
       <use xlink:href="#DejaVuSans-2d" transform="translate(254.492188 0)"/>
       <use xlink:href="#DejaVuSans-31" transform="translate(290.576172 0)"/>
       <use xlink:href="#DejaVuSans-31" transform="translate(354.199219 0)"/>
      </g>
     </g>
    </g>
    <g id="xtick_3">
     <g id="line2d_3">
      <g>
       <use xlink:href="#m7121131945" x="234.305379" y="139.118281" style="fill: #8b949e; stroke: #8b949e; stroke-width: 0.8"/>
      </g>
     </g>
     <g id="text_3">
      <!-- 2025-12 -->
      <g style="fill: #8b949e" transform="translate(217.592254 152.197031) scale(0.08 -0.08)">
       <use xlink:href="#DejaVuSans-32"/>
       <use xlink:href="#DejaVuSans-30" transform="translate(63.623047 0)"/>
       <use xlink:href="#DejaVuSans-32" transform="translate(127.246094 0)"/>
       <use xlink:href="#DejaVuSans-35" transform="translate(190.869141 0)"/>
       <use xlink:href="#DejaVuSans-2d" transform="translate(254.492188 0)"/>
       <use xlink:href="#DejaVuSans-31" transform="translate(290.576172 0)"/>
       <use xlink:href="#DejaVuSans-32" transform="translate(354.199219 0)"/>
      </g>
     </g>
    </g>
    <g id="xtick_4">
     <g id="line2d_4">
      <g>
       <use xlink:href="#m7121131945" x="322.43901" y="139.118281" style="fill: #8b949e; stroke: #8b949e; stroke-width: 0.8"/>
      </g>
     </g>
     <g id="text_4">
      <!-- 2026-01 -->
      <g style="fill: #8b949e" transform="translate(305.725885 152.197031) scale(0.08 -0.08)">
       <defs>
        <path id="DejaVuSans-36" d="M 2113 2584 
Q 1688 2584 1439 2293 
Q 1191 2003 1191 1497 
Q 1191 994 1439 701 
Q 1688 409 2113 409 
Q 2538 409 2786 701 
Q 3034 994 3034 1497 
Q 3034 2003 2786 2293 
Q 2538 2584 2113 2584 
z
M 3366 4563 
L 3366 3988 
Q 3128 4100 2886 4159 
Q 2644 4219 2406 4219 
Q 1781 4219 1451 3797 
Q 1122 3375 1075 2522 
Q 1259 2794 1537 2939 
Q 1816 3084 2150 3084 
Q 2853 3084 3261 2657 
Q 3669 2231 3669 1497 
Q 3669 778 3244 343 
Q 2819 -91 2113 -91 
Q 1303 -91 875 529 
Q 447 1150 447 2328 
Q 447 3434 972 4092 
Q 1497 4750 2381 4750 
Q 2619 4750 2861 4703 
Q 3103 4656 3366 4563 
z
" transform="scale(0.015625)"/>
       </defs>
       <use xlink:href="#DejaVuSans-32"/>
       <use xlink:href="#DejaVuSans-30" transform="translate(63.623047 0)"/>
       <use xlink:href="#DejaVuSans-32" transform="translate(127.246094 0)"/>
       <use xlink:href="#DejaVuSans-36" transform="translate(190.869141 0)"/>
       <use xlink:href="#DejaVuSans-2d" transform="translate(254.492188 0)"/>
       <use xlink:href="#DejaVuSans-30" transform="translate(290.576172 0)"/>
       <use xlink:href="#DejaVuSans-31" transform="translate(354.199219 0)"/>
      </g>
     </g>
    </g>
    <g id="xtick_5">
     <g id="line2d_5">
      <g>
       <use xlink:href="#m7121131945" x="410.572642" y="139.118281" style="fill: #8b949e; stroke: #8b949e; stroke-width: 0.8"/>
      </g>
     </g>
     <g id="text_5">
      <!-- 2026-02 -->
      <g style="fill: #8b949e" transform="translate(393.859517 152.197031) scale(0.08 -0.08)">
       <use xlink:href="#DejaVuSans-32"/>
       <use xlink:href="#DejaVuSans-30" transform="translate(63.623047 0)"/>
       <use xlink:href="#DejaVuSans-32" transform="translate(127.246094 0)"/>
       <use xlink:href="#DejaVuSans-36" transform="translate(190.869141 0)"/>
       <use xlink:href="#DejaVuSans-2d" transform="translate(254.492188 0)"/>
       <use xlink:href="#DejaVuSans-30" transform="translate(290.576172 0)"/>
       <use xlink:href="#DejaVuSans-32" transform="translate(354.199219 0)"/>
      </g>
     </g>
    </g>
    <g id="xtick_6">
     <g id="line2d_6">
      <g>
       <use xlink:href="#m7121131945" x="490.177212" y="139.118281" style="fill: #8b949e; stroke: #8b949e; stroke-width: 0.8"/>
      </g>
     </g>
     <g id="text_6">
      <!-- 2026-03 -->
      <g style="fill: #8b949e" transform="translate(473.464087 152.197031) scale(0.08 -0.08)">
       <defs>
        <path id="DejaVuSans-33" d="M 2597 2516 
Q 3050 2419 3304 2112 
Q 3559 1806 3559 1356 
Q 3559 666 3084 287 
Q 2609 -91 1734 -91 
Q 1441 -91 1130 -33 
Q 819 25 488 141 
L 488 750 
Q 750 597 1062 519 
Q 1375 441 1716 441 
Q 2309 441 2620 675 
Q 2931 909 2931 1356 
Q 2931 1769 2642 2001 
Q 2353 2234 1838 2234 
L 1294 2234 
L 1294 2753 
L 1863 2753 
Q 2328 2753 2575 2939 
Q 2822 3125 2822 3475 
Q 2822 3834 2567 4026 
Q 2313 4219 1838 4219 
Q 1578 4219 1281 4162 
Q 984 4106 628 3988 
L 628 4550 
Q 988 4650 1302 4700 
Q 1616 4750 1894 4750 
Q 2613 4750 3031 4423 
Q 3450 4097 3450 3541 
Q 3450 3153 3228 2886 
Q 3006 2619 2597 2516 
z
" transform="scale(0.015625)"/>
       </defs>
       <use xlink:href="#DejaVuSans-32"/>
       <use xlink:href="#DejaVuSans-30" transform="translate(63.623047 0)"/>
       <use xlink:href="#DejaVuSans-32" transform="translate(127.246094 0)"/>
       <use xlink:href="#DejaVuSans-36" transform="translate(190.869141 0)"/>
       <use xlink:href="#DejaVuSans-2d" transform="translate(254.492188 0)"/>
       <use xlink:href="#DejaVuSans-30" transform="translate(290.576172 0)"/>
       <use xlink:href="#DejaVuSans-33" transform="translate(354.199219 0)"/>
      </g>
     </g>
    </g>
    <g id="xtick_7">
     <g id="line2d_7">
      <g>
       <use xlink:href="#m7121131945" x="578.310843" y="139.118281" style="fill: #8b949e; stroke: #8b949e; stroke-width: 0.8"/>
      </g>
     </g>
     <g id="text_7">
      <!-- 2026-04 -->
      <g style="fill: #8b949e" transform="translate(561.597718 152.197031) scale(0.08 -0.08)">
       <defs>
        <path id="DejaVuSans-34" d="M 2419 4116 
L 825 1625 
L 2419 1625 
L 2419 4116 
z
M 2253 4666 
L 3047 4666 
L 3047 1625 
L 3713 1625 
L 3713 1100 
L 3047 1100 
L 3047 0 
L 2419 0 
L 2419 1100 
L 313 1100 
L 313 1709 
L 2253 4666 
z
" transform="scale(0.015625)"/>
       </defs>
       <use xlink:href="#DejaVuSans-32"/>
       <use xlink:href="#DejaVuSans-30" transform="translate(63.623047 0)"/>
       <use xlink:href="#DejaVuSans-32" transform="translate(127.246094 0)"/>
       <use xlink:href="#DejaVuSans-36" transform="translate(190.869141 0)"/>
       <use xlink:href="#DejaVuSans-2d" transform="translate(254.492188 0)"/>
       <use xlink:href="#DejaVuSans-30" transform="translate(290.576172 0)"/>
       <use xlink:href="#DejaVuSans-34" transform="translate(354.199219 0)"/>
      </g>
     </g>
    </g>
   </g>
   <g id="matplotlib.axis_2">
    <g id="ytick_1">
     <g id="line2d_8">
      <defs>
       <path id="md55a8274b0" d="M 0 0 
L -3.5 0 
" style="stroke: #8b949e; stroke-width: 0.8"/>
      </defs>
      <g>
       <use xlink:href="#md55a8274b0" x="34.8675" y="126.128277" style="fill: #8b949e; stroke: #8b949e; stroke-width: 0.8"/>
      </g>
     </g>
     <g id="text_8">
      <!-- -12% -->
      <g style="fill: #8b949e" transform="translate(7.2 129.167652) scale(0.08 -0.08)">
       <defs>
        <path id="DejaVuSans-25" d="M 4653 2053 
Q 4381 2053 4226 1822 
Q 4072 1591 4072 1178 
Q 4072 772 4226 539 
Q 4381 306 4653 306 
Q 4919 306 5073 539 
Q 5228 772 5228 1178 
Q 5228 1588 5073 1820 
Q 4919 2053 4653 2053 
z
M 4653 2450 
Q 5147 2450 5437 2106 
Q 5728 1763 5728 1178 
Q 5728 594 5436 251 
Q 5144 -91 4653 -91 
Q 4153 -91 3862 251 
Q 3572 594 3572 1178 
Q 3572 1766 3864 2108 
Q 4156 2450 4653 2450 
z
M 1428 4353 
Q 1159 4353 1004 4120 
Q 850 3888 850 3481 
Q 850 3069 1003 2837 
Q 1156 2606 1428 2606 
Q 1700 2606 1854 2837 
Q 2009 3069 2009 3481 
Q 2009 3884 1853 4118 
Q 1697 4353 1428 4353 
z
M 4250 4750 
L 4750 4750 
L 1831 -91 
L 1331 -91 
L 4250 4750 
z
M 1428 4750 
Q 1922 4750 2215 4408 
Q 2509 4066 2509 3481 
Q 2509 2891 2217 2550 
Q 1925 2209 1428 2209 
Q 931 2209 642 2551 
Q 353 2894 353 3481 
Q 353 4063 643 4406 
Q 934 4750 1428 4750 
z
" transform="scale(0.015625)"/>
       </defs>
       <use xlink:href="#DejaVuSans-2d"/>
       <use xlink:href="#DejaVuSans-31" transform="translate(36.083984 0)"/>
       <use xlink:href="#DejaVuSans-32" transform="translate(99.707031 0)"/>
       <use xlink:href="#DejaVuSans-25" transform="translate(163.330078 0)"/>
      </g>
     </g>
    </g>
    <g id="ytick_2">
     <g id="line2d_9">
      <g>
       <use xlink:href="#md55a8274b0" x="34.8675" y="106.664823" style="fill: #8b949e; stroke: #8b949e; stroke-width: 0.8"/>
      </g>
     </g>
     <g id="text_9">
      <!-- -10% -->
      <g style="fill: #8b949e" transform="translate(7.2 109.704198) scale(0.08 -0.08)">
       <use xlink:href="#DejaVuSans-2d"/>
       <use xlink:href="#DejaVuSans-31" transform="translate(36.083984 0)"/>
       <use xlink:href="#DejaVuSans-30" transform="translate(99.707031 0)"/>
       <use xlink:href="#DejaVuSans-25" transform="translate(163.330078 0)"/>
      </g>
     </g>
    </g>
    <g id="ytick_3">
     <g id="line2d_10">
      <g>
       <use xlink:href="#md55a8274b0" x="34.8675" y="87.20137" style="fill: #8b949e; stroke: #8b949e; stroke-width: 0.8"/>
      </g>
     </g>
     <g id="text_10">
      <!-- -8% -->
      <g style="fill: #8b949e" transform="translate(12.29 90.240745) scale(0.08 -0.08)">
       <defs>
        <path id="DejaVuSans-38" d="M 2034 2216 
Q 1584 2216 1326 1975 
Q 1069 1734 1069 1313 
Q 1069 891 1326 650 
Q 1584 409 2034 409 
Q 2484 409 2743 651 
Q 3003 894 3003 1313 
Q 3003 1734 2745 1975 
Q 2488 2216 2034 2216 
z
M 1403 2484 
Q 997 2584 770 2862 
Q 544 3141 544 3541 
Q 544 4100 942 4425 
Q 1341 4750 2034 4750 
Q 2731 4750 3128 4425 
Q 3525 4100 3525 3541 
Q 3525 3141 3298 2862 
Q 3072 2584 2669 2484 
Q 3125 2378 3379 2068 
Q 3634 1759 3634 1313 
Q 3634 634 3220 271 
Q 2806 -91 2034 -91 
Q 1263 -91 848 271 
Q 434 634 434 1313 
Q 434 1759 690 2068 
Q 947 2378 1403 2484 
z
M 1172 3481 
Q 1172 3119 1398 2916 
Q 1625 2713 2034 2713 
Q 2441 2713 2670 2916 
Q 2900 3119 2900 3481 
Q 2900 3844 2670 4047 
Q 2441 4250 2034 4250 
Q 1625 4250 1398 4047 
Q 1172 3844 1172 3481 
z
" transform="scale(0.015625)"/>
       </defs>
       <use xlink:href="#DejaVuSans-2d"/>
       <use xlink:href="#DejaVuSans-38" transform="translate(36.083984 0)"/>
       <use xlink:href="#DejaVuSans-25" transform="translate(99.707031 0)"/>
      </g>
     </g>
    </g>
    <g id="ytick_4">
     <g id="line2d_11">
      <g>
       <use xlink:href="#md55a8274b0" x="34.8675" y="67.737916" style="fill: #8b949e; stroke: #8b949e; stroke-width: 0.8"/>
      </g>
     </g>
     <g id="text_11">
      <!-- -5% -->
      <g style="fill: #8b949e" transform="translate(12.29 70.777291) scale(0.08 -0.08)">
       <use xlink:href="#DejaVuSans-2d"/>
       <use xlink:href="#DejaVuSans-35" transform="translate(36.083984 0)"/>
       <use xlink:href="#DejaVuSans-25" transform="translate(99.707031 0)"/>
      </g>
     </g>
    </g>
    <g id="ytick_5">
     <g id="line2d_12">
      <g>
       <use xlink:href="#md55a8274b0" x="34.8675" y="48.274462" style="fill: #8b949e; stroke: #8b949e; stroke-width: 0.8"/>
      </g>
     </g>
     <g id="text_12">
      <!-- -2% -->
      <g style="fill: #8b949e" transform="translate(12.29 51.313837) scale(0.08 -0.08)">
       <use xlink:href="#DejaVuSans-2d"/>
       <use xlink:href="#DejaVuSans-32" transform="translate(36.083984 0)"/>
       <use xlink:href="#DejaVuSans-25" transform="translate(99.707031 0)"/>
      </g>
     </g>
    </g>
    <g id="ytick_6">
     <g id="line2d_13">
      <g>
       <use xlink:href="#md55a8274b0" x="34.8675" y="28.811009" style="fill: #8b949e; stroke: #8b949e; stroke-width: 0.8"/>
      </g>
     </g>
     <g id="text_13">
      <!-- 0% -->
      <g style="fill: #8b949e" transform="translate(15.17625 31.850384) scale(0.08 -0.08)">
       <use xlink:href="#DejaVuSans-30"/>
       <use xlink:href="#DejaVuSans-25" transform="translate(63.623047 0)"/>
      </g>
     </g>
    </g>
   </g>
   <g id="line2d_14">
    <path d="M 60.881136 28.811009 
L 63.724157 29.294409 
L 66.567177 28.811009 
L 75.096238 28.811009 
L 80.782279 31.417855 
L 83.625299 28.811009 
L 86.46832 28.811009 
L 94.997381 32.130865 
L 97.840401 28.811009 
L 103.526442 35.352983 
L 106.369462 32.603453 
L 114.898523 48.211544 
L 117.741544 61.93227 
L 120.584564 65.87192 
L 123.427584 73.465494 
L 126.270605 70.268168 
L 134.799666 76.966955 
L 137.642686 87.656347 
L 140.485707 75.405638 
L 143.328727 76.564699 
L 146.171747 75.364159 
L 157.543829 89.846684 
L 160.386849 88.325473 
L 163.22987 96.781859 
L 166.07289 93.205803 
L 174.601951 97.281437 
L 177.444971 98.920722 
L 180.287992 102.972063 
L 183.131012 87.986398 
L 185.974033 87.445775 
L 194.503094 95.173808 
L 197.346114 88.089092 
L 200.189134 97.100903 
L 203.032155 94.829885 
L 205.875175 109.547947 
L 214.404236 119.114834 
L 217.247257 117.00507 
L 220.090277 110.776004 
L 222.933297 108.836012 
L 225.776318 109.095951 
L 234.305379 110.780236 
L 237.148399 121.482141 
L 239.99142 126.295752 
L 242.83444 129.133719 
L 245.67746 120.636803 
L 254.206521 117.423125 
L 257.049542 130.182232 
L 259.892562 127.158734 
L 262.735582 129.427784 
L 265.578603 133.865554 
L 274.107664 128.727925 
L 276.950684 120.420926 
L 279.793705 112.765742 
L 282.636725 118.55259 
L 285.479745 120.275501 
L 294.008807 117.153509 
L 296.851827 109.125846 
L 299.694847 112.177722 
L 302.537868 112.97178 
L 305.380888 120.797194 
L 313.909949 129.213136 
L 316.752969 122.54178 
L 319.59599 111.709058 
L 322.43901 111.634007 
L 325.282031 103.32796 
L 333.811092 99.893747 
L 336.654112 104.277365 
L 339.497132 100.849643 
L 342.340153 88.26095 
L 345.183173 87.897154 
L 353.712234 74.867101 
L 356.555255 95.315946 
L 359.398275 88.237676 
L 362.241295 86.901913 
L 365.084316 88.62312 
L 373.613377 87.250807 
L 376.456397 102.346415 
L 379.299418 103.415474 
L 382.142438 100.016715 
L 384.985458 87.881129 
L 393.514519 91.335275 
L 396.35754 97.058682 
L 399.20056 100.339746 
L 402.04358 92.584261 
L 404.886601 89.356195 
L 413.415662 92.894006 
L 416.258682 88.217224 
L 419.101703 86.802079 
L 421.944723 78.476089 
L 424.787743 83.448886 
L 433.316805 85.406518 
L 436.159825 87.870645 
L 439.002845 98.805758 
L 441.845866 95.860114 
L 444.688886 93.176656 
L 453.217947 92.49373 
L 456.060967 93.695015 
L 458.903988 104.163663 
L 461.747008 106.784505 
L 464.590029 108.795027 
L 473.11909 114.331104 
L 475.96211 114.9369 
L 478.80513 111.236262 
L 481.648151 96.166779 
L 484.491171 94.160991 
L 493.020232 91.498621 
L 495.863253 91.440569 
L 498.706273 105.906564 
L 501.549293 105.479843 
L 504.392314 104.38315 
L 512.921375 84.70315 
L 515.764395 85.581867 
L 518.607416 82.538159 
L 521.450436 82.162583 
L 524.293456 90.832521 
L 532.822517 81.180289 
L 535.665538 74.520403 
L 538.508558 67.484257 
L 541.351578 74.219441 
L 544.194599 62.246892 
L 552.72366 73.066046 
L 555.56668 67.66508 
L 558.409701 49.176667 
L 561.252721 56.755284 
L 564.095741 60.755405 
L 572.624803 59.26508 
L 575.467823 62.734868 
L 578.310843 74.765823 
L 581.153864 73.553989 
L 581.153864 73.553989 
" clip-path="url(#p737a474174)" style="fill: none; stroke: #f85149; stroke-width: 1.4; stroke-linecap: square"/>
   </g>
   <g id="line2d_15">
    <path d="M 34.8675 28.811009 
L 607.1675 28.811009 
" clip-path="url(#p737a474174)" style="fill: none; stroke: #21262d; stroke-width: 0.8; stroke-linecap: square"/>
   </g>
   <g id="patch_3">
    <path d="M 34.8675 139.118281 
L 34.8675 23.558281 
" style="fill: none; stroke: #21262d; stroke-width: 0.8; stroke-linejoin: miter; stroke-linecap: square"/>
   </g>
   <g id="patch_4">
    <path d="M 607.1675 139.118281 
L 607.1675 23.558281 
" style="fill: none; stroke: #21262d; stroke-width: 0.8; stroke-linejoin: miter; stroke-linecap: square"/>
   </g>
   <g id="patch_5">
    <path d="M 34.8675 139.118281 
L 607.1675 139.118281 
" style="fill: none; stroke: #21262d; stroke-width: 0.8; stroke-linejoin: miter; stroke-linecap: square"/>
   </g>
   <g id="patch_6">
    <path d="M 34.8675 23.558281 
L 607.1675 23.558281 
" style="fill: none; stroke: #21262d; stroke-width: 0.8; stroke-linejoin: miter; stroke-linecap: square"/>
   </g>
   <g id="text_14">
    <!-- Drawdown from ATH -->
    <g style="fill: #e6edf3" transform="translate(257.605078 15.558281) scale(0.11 -0.11)">
     <defs>
      <path id="DejaVuSans-Bold-44" d="M 1791 3756 
L 1791 909 
L 2222 909 
Q 2959 909 3348 1275 
Q 3738 1641 3738 2338 
Q 3738 3031 3350 3393 
Q 2963 3756 2222 3756 
L 1791 3756 
z
M 588 4666 
L 1856 4666 
Q 2919 4666 3439 4514 
Q 3959 4363 4331 4000 
Q 4659 3684 4818 3271 
Q 4978 2859 4978 2338 
Q 4978 1809 4818 1395 
Q 4659 981 4331 666 
Q 3956 303 3431 151 
Q 2906 0 1856 0 
L 588 0 
L 588 4666 
z
" transform="scale(0.015625)"/>
      <path id="DejaVuSans-Bold-72" d="M 3138 2547 
Q 2991 2616 2845 2648 
Q 2700 2681 2553 2681 
Q 2122 2681 1889 2404 
Q 1656 2128 1656 1613 
L 1656 0 
L 538 0 
L 538 3500 
L 1656 3500 
L 1656 2925 
Q 1872 3269 2151 3426 
Q 2431 3584 2822 3584 
Q 2878 3584 2943 3579 
Q 3009 3575 3134 3559 
L 3138 2547 
z
" transform="scale(0.015625)"/>
      <path id="DejaVuSans-Bold-61" d="M 2106 1575 
Q 1756 1575 1579 1456 
Q 1403 1338 1403 1106 
Q 1403 894 1545 773 
Q 1688 653 1941 653 
Q 2256 653 2472 879 
Q 2688 1106 2688 1447 
L 2688 1575 
L 2106 1575 
z
M 3816 1997 
L 3816 0 
L 2688 0 
L 2688 519 
Q 2463 200 2181 54 
Q 1900 -91 1497 -91 
Q 953 -91 614 226 
Q 275 544 275 1050 
Q 275 1666 698 1953 
Q 1122 2241 2028 2241 
L 2688 2241 
L 2688 2328 
Q 2688 2594 2478 2717 
Q 2269 2841 1825 2841 
Q 1466 2841 1156 2769 
Q 847 2697 581 2553 
L 581 3406 
Q 941 3494 1303 3539 
Q 1666 3584 2028 3584 
Q 2975 3584 3395 3211 
Q 3816 2838 3816 1997 
z
" transform="scale(0.015625)"/>
      <path id="DejaVuSans-Bold-77" d="M 225 3500 
L 1313 3500 
L 1900 1088 
L 2491 3500 
L 3425 3500 
L 4013 1113 
L 4603 3500 
L 5691 3500 
L 4769 0 
L 3547 0 
L 2956 2406 
L 2369 0 
L 1147 0 
L 225 3500 
z
" transform="scale(0.015625)"/>
      <path id="DejaVuSans-Bold-64" d="M 2919 2988 
L 2919 4863 
L 4044 4863 
L 4044 0 
L 2919 0 
L 2919 506 
Q 2688 197 2409 53 
Q 2131 -91 1766 -91 
Q 1119 -91 703 423 
Q 288 938 288 1747 
Q 288 2556 703 3070 
Q 1119 3584 1766 3584 
Q 2128 3584 2408 3439 
Q 2688 3294 2919 2988 
z
M 2181 722 
Q 2541 722 2730 984 
Q 2919 1247 2919 1747 
Q 2919 2247 2730 2509 
Q 2541 2772 2181 2772 
Q 1825 2772 1636 2509 
Q 1447 2247 1447 1747 
Q 1447 1247 1636 984 
Q 1825 722 2181 722 
z
" transform="scale(0.015625)"/>
      <path id="DejaVuSans-Bold-6f" d="M 2203 2784 
Q 1831 2784 1636 2517 
Q 1441 2250 1441 1747 
Q 1441 1244 1636 976 
Q 1831 709 2203 709 
Q 2569 709 2762 976 
Q 2956 1244 2956 1747 
Q 2956 2250 2762 2517 
Q 2569 2784 2203 2784 
z
M 2203 3584 
Q 3106 3584 3614 3096 
Q 4122 2609 4122 1747 
Q 4122 884 3614 396 
Q 3106 -91 2203 -91 
Q 1297 -91 786 396 
Q 275 884 275 1747 
Q 275 2609 786 3096 
Q 1297 3584 2203 3584 
z
" transform="scale(0.015625)"/>
      <path id="DejaVuSans-Bold-6e" d="M 4056 2131 
L 4056 0 
L 2931 0 
L 2931 347 
L 2931 1631 
Q 2931 2084 2911 2256 
Q 2891 2428 2841 2509 
Q 2775 2619 2662 2680 
Q 2550 2741 2406 2741 
Q 2056 2741 1856 2470 
Q 1656 2200 1656 1722 
L 1656 0 
L 538 0 
L 538 3500 
L 1656 3500 
L 1656 2988 
Q 1909 3294 2193 3439 
Q 2478 3584 2822 3584 
Q 3428 3584 3742 3212 
Q 4056 2841 4056 2131 
z
" transform="scale(0.015625)"/>
      <path id="DejaVuSans-Bold-20" transform="scale(0.015625)"/>
      <path id="DejaVuSans-Bold-66" d="M 2841 4863 
L 2841 4128 
L 2222 4128 
Q 1984 4128 1890 4042 
Q 1797 3956 1797 3744 
L 1797 3500 
L 2753 3500 
L 2753 2700 
L 1797 2700 
L 1797 0 
L 678 0 
L 678 2700 
L 122 2700 
L 122 3500 
L 678 3500 
L 678 3744 
Q 678 4316 997 4589 
Q 1316 4863 1984 4863 
L 2841 4863 
z
" transform="scale(0.015625)"/>
      <path id="DejaVuSans-Bold-6d" d="M 3781 2919 
Q 3994 3244 4286 3414 
Q 4578 3584 4928 3584 
Q 5531 3584 5847 3212 
Q 6163 2841 6163 2131 
L 6163 0 
L 5038 0 
L 5038 1825 
Q 5041 1866 5042 1909 
Q 5044 1953 5044 2034 
Q 5044 2406 4934 2573 
Q 4825 2741 4581 2741 
Q 4263 2741 4089 2478 
Q 3916 2216 3909 1719 
L 3909 0 
L 2784 0 
L 2784 1825 
Q 2784 2406 2684 2573 
Q 2584 2741 2328 2741 
Q 2006 2741 1831 2477 
Q 1656 2213 1656 1722 
L 1656 0 
L 531 0 
L 531 3500 
L 1656 3500 
L 1656 2988 
Q 1863 3284 2130 3434 
Q 2397 3584 2719 3584 
Q 3081 3584 3359 3409 
Q 3638 3234 3781 2919 
z
" transform="scale(0.015625)"/>
      <path id="DejaVuSans-Bold-41" d="M 3419 850 
L 1538 850 
L 1241 0 
L 31 0 
L 1759 4666 
L 3194 4666 
L 4922 0 
L 3713 0 
L 3419 850 
z
M 1838 1716 
L 3116 1716 
L 2478 3572 
L 1838 1716 
z
" transform="scale(0.015625)"/>
      <path id="DejaVuSans-Bold-54" d="M 31 4666 
L 4331 4666 
L 4331 3756 
L 2784 3756 
L 2784 0 
L 1581 0 
L 1581 3756 
L 31 3756 
L 31 4666 
z
" transform="scale(0.015625)"/>
      <path id="DejaVuSans-Bold-48" d="M 588 4666 
L 1791 4666 
L 1791 2888 
L 3566 2888 
L 3566 4666 
L 4769 4666 
L 4769 0 
L 3566 0 
L 3566 1978 
L 1791 1978 
L 1791 0 
L 588 0 
L 588 4666 
z
" transform="scale(0.015625)"/>
     </defs>
     <use xlink:href="#DejaVuSans-Bold-44"/>
     <use xlink:href="#DejaVuSans-Bold-72" transform="translate(83.007812 0)"/>
     <use xlink:href="#DejaVuSans-Bold-61" transform="translate(132.324219 0)"/>
     <use xlink:href="#DejaVuSans-Bold-77" transform="translate(199.804688 0)"/>
     <use xlink:href="#DejaVuSans-Bold-64" transform="translate(292.1875 0)"/>
     <use xlink:href="#DejaVuSans-Bold-6f" transform="translate(363.769531 0)"/>
     <use xlink:href="#DejaVuSans-Bold-77" transform="translate(432.470703 0)"/>
     <use xlink:href="#DejaVuSans-Bold-6e" transform="translate(524.853516 0)"/>
     <use xlink:href="#DejaVuSans-Bold-20" transform="translate(596.044922 0)"/>
     <use xlink:href="#DejaVuSans-Bold-66" transform="translate(630.859375 0)"/>
     <use xlink:href="#DejaVuSans-Bold-72" transform="translate(674.365234 0)"/>
     <use xlink:href="#DejaVuSans-Bold-6f" transform="translate(723.681641 0)"/>
     <use xlink:href="#DejaVuSans-Bold-6d" transform="translate(792.382812 0)"/>
     <use xlink:href="#DejaVuSans-Bold-20" transform="translate(896.582031 0)"/>
     <use xlink:href="#DejaVuSans-Bold-41" transform="translate(931.396484 0)"/>
     <use xlink:href="#DejaVuSans-Bold-54" transform="translate(1001.039062 0)"/>
     <use xlink:href="#DejaVuSans-Bold-48" transform="translate(1069.251953 0)"/>
    </g>
   </g>
  </g>
 </g>
 <defs>
  <clipPath id="p737a474174">
   <rect x="34.8675" y="23.558281" width="572.3" height="115.56"/>
  </clipPath>
 </defs>
</svg>
