<?xml version="1.0" encoding="utf-8" standalone="no"?>
<!DOCTYPE svg PUBLIC "-//W3C//DTD SVG 1.1//EN"
  "http://www.w3.org/Graphics/SVG/1.1/DTD/svg11.dtd">
<svg xmlns:xlink="http://www.w3.org/1999/xlink" width="614.3225pt" height="218.660781pt" viewBox="0 0 614.3225 218.660781" xmlns="http://www.w3.org/2000/svg" version="1.1">
 <metadata>
  <rdf:RDF xmlns:dc="http://purl.org/dc/elements/1.1/" xmlns:cc="http://creativecommons.org/ns#" xmlns:rdf="http://www.w3.org/1999/02/22-rdf-syntax-ns#">
   <cc:Work>
    <dc:type rdf:resource="http://purl.org/dc/dcmitype/StillImage"/>
    <dc:date>2026-03-11T13:32:45.717670</dc:date>
    <dc:format>image/svg+xml</dc:format>
    <dc:creator>
     <cc:Agent>
      <dc:title>Matplotlib v3.10.8, https://matplotlib.org/</dc:title>
     </cc:Agent>
    </dc:creator>
   </cc:Work>
  </rdf:RDF>
 </metadata>
 <defs>
  <style type="text/css">*{stroke-linejoin: round; stroke-linecap: butt}</style>
 </defs>
 <g id="figure_1">
  <g id="patch_1">
   <path d="M 0 218.660781 
L 614.3225 218.660781 
L 614.3225 0 
L 0 0 
z
" style="fill: #0d1117"/>
  </g>
  <g id="axes_1">
   <g id="patch_2">
    <path d="M 34.1025 196.718281 
L 607.1225 196.718281 
L 607.1225 23.558281 
L 34.1025 23.558281 
z
" style="fill: #0d1117"/>
   </g>
   <g id="FillBetweenPolyCollection_1">
    <path d="M 60.148864 105.572247 
L 60.148864 105.572247 
L 60.148864 105.572247 
L 60.148864 105.572247 
z
" clip-path="url(#pd2766cb928)" style="fill: #3fb950; fill-opacity: 0.12; stroke: #3fb950; stroke-opacity: 0.12"/>
    <path d="M 65.842058 105.572247 
L 65.842058 100.494986 
L 74.381849 88.330078 
L 77.228446 89.497025 
L 80.075043 90.662673 
L 82.921641 77.964103 
L 85.768238 71.400394 
L 94.308029 74.413306 
L 97.154626 69.572978 
L 100.001223 72.543419 
L 102.84782 75.524331 
L 105.694418 73.016682 
L 114.234209 87.231494 
L 117.080806 99.830188 
L 119.927403 103.474302 
L 119.927403 105.572247 
L 119.927403 105.572247 
L 117.080806 105.572247 
L 114.234209 105.572247 
L 105.694418 105.572247 
L 102.84782 105.572247 
L 100.001223 105.572247 
L 97.154626 105.572247 
L 94.308029 105.572247 
L 85.768238 105.572247 
L 82.921641 105.572247 
L 80.075043 105.572247 
L 77.228446 105.572247 
L 74.381849 105.572247 
L 65.842058 105.572247 
z
" clip-path="url(#pd2766cb928)" style="fill: #3fb950; fill-opacity: 0.12; stroke: #3fb950; stroke-opacity: 0.12"/>
    <path d="M 341.961978 105.572247 
L 341.961978 87.565749 
L 344.808576 86.743133 
L 353.348367 57.273645 
L 356.194964 103.850967 
L 359.041561 87.913657 
L 361.888158 84.894236 
L 364.734755 88.787819 
L 373.274547 85.686451 
L 373.274547 105.572247 
L 373.274547 105.572247 
L 364.734755 105.572247 
L 361.888158 105.572247 
L 359.041561 105.572247 
L 356.194964 105.572247 
L 353.348367 105.572247 
L 344.808576 105.572247 
L 341.961978 105.572247 
z
" clip-path="url(#pd2766cb928)" style="fill: #3fb950; fill-opacity: 0.12; stroke: #3fb950; stroke-opacity: 0.12"/>
    <path d="M 384.660935 105.572247 
L 384.660935 87.361134 
L 393.200727 95.168894 
L 393.200727 105.572247 
L 393.200727 105.572247 
L 384.660935 105.572247 
z
" clip-path="url(#pd2766cb928)" style="fill: #3fb950; fill-opacity: 0.12; stroke: #3fb950; stroke-opacity: 0.12"/>
    <path d="M 401.740518 105.572247 
L 401.740518 98.051567 
L 404.587115 90.77442 
L 413.126906 98.764181 
L 415.973503 88.2231 
L 418.820101 86.167295 
L 421.666698 74.07437 
L 424.513295 81.288764 
L 433.053086 84.130792 
L 435.899683 87.709104 
L 438.74628 103.594098 
L 441.592878 99.308477 
L 444.439475 95.405927 
L 452.979266 94.413121 
L 455.825863 96.159325 
L 455.825863 105.572247 
L 455.825863 105.572247 
L 452.979266 105.572247 
L 444.439475 105.572247 
L 441.592878 105.572247 
L 438.74628 105.572247 
L 435.899683 105.572247 
L 433.053086 105.572247 
L 424.513295 105.572247 
L 421.666698 105.572247 
L 418.820101 105.572247 
L 415.973503 105.572247 
L 413.126906 105.572247 
L 404.587115 105.572247 
L 401.740518 105.572247 
z
" clip-path="url(#pd2766cb928)" style="fill: #3fb950; fill-opacity: 0.12; stroke: #3fb950; stroke-opacity: 0.12"/>
    <path d="M 481.445237 105.572247 
L 481.445237 99.71268 
L 484.291834 96.795434 
L 492.831626 92.924333 
L 495.678223 92.839956 
L 495.678223 105.572247 
L 495.678223 105.572247 
L 492.831626 105.572247 
L 484.291834 105.572247 
L 481.445237 105.572247 
z
" clip-path="url(#pd2766cb928)" style="fill: #3fb950; fill-opacity: 0.12; stroke: #3fb950; stroke-opacity: 0.12"/>
    <path d="M 512.757806 105.572247 
L 512.757806 82.990189 
L 515.604403 84.266234 
L 518.451 79.845718 
L 521.297597 79.300481 
L 524.144194 91.886291 
L 532.683985 77.857569 
L 535.530582 68.190841 
L 538.37718 57.987257 
L 541.223777 67.745107 
L 544.070374 50.383495 
L 552.610165 66.047338 
L 555.456762 58.216361 
L 558.303359 31.42919 
L 561.149957 42.382788 
L 563.996554 48.170119 
L 572.536345 46.012779 
L 575.382942 51.034519 
L 578.229539 68.454741 
L 581.076136 66.697184 
L 581.076136 105.572247 
L 581.076136 105.572247 
L 578.229539 105.572247 
L 575.382942 105.572247 
L 572.536345 105.572247 
L 563.996554 105.572247 
L 561.149957 105.572247 
L 558.303359 105.572247 
L 555.456762 105.572247 
L 552.610165 105.572247 
L 544.070374 105.572247 
L 541.223777 105.572247 
L 538.37718 105.572247 
L 535.530582 105.572247 
L 532.683985 105.572247 
L 524.144194 105.572247 
L 521.297597 105.572247 
L 518.451 105.572247 
L 515.604403 105.572247 
L 512.757806 105.572247 
z
" clip-path="url(#pd2766cb928)" style="fill: #3fb950; fill-opacity: 0.12; stroke: #3fb950; stroke-opacity: 0.12"/>
   </g>
   <g id="FillBetweenPolyCollection_2">
    <path d="M 62.995461 105.572247 
L 62.995461 105.998223 
L 62.995461 105.572247 
L 62.995461 105.572247 
z
" clip-path="url(#pd2766cb928)" style="fill: #f85149; fill-opacity: 0.12; stroke: #f85149; stroke-opacity: 0.12"/>
    <path d="M 122.774 105.572247 
L 122.774 110.513165 
L 125.620597 107.537137 
L 134.160389 113.761459 
L 137.006986 123.730176 
L 139.853583 112.23753 
L 142.70018 113.31759 
L 145.546777 112.198169 
L 154.086569 122.273983 
L 156.933166 125.713778 
L 159.779763 124.284864 
L 162.62636 132.221445 
L 165.472957 128.849229 
L 174.012748 132.684849 
L 176.859346 134.231138 
L 179.705943 138.056186 
L 182.55254 123.875013 
L 185.399137 123.367676 
L 193.938928 130.61772 
L 196.785525 123.942354 
L 199.632122 132.400013 
L 202.47872 130.257826 
L 205.325317 144.123255 
L 213.865108 153.21196 
L 216.711705 151.196504 
L 219.558302 137.328692 
L 222.404899 132.994225 
L 225.251497 133.575643 
L 233.791288 137.342411 
L 236.637885 161.253209 
L 239.484482 171.940925 
L 242.331079 178.224282 
L 245.177676 159.443306 
L 253.717468 152.304867 
L 256.564065 180.699069 
L 259.410662 174.021266 
L 262.257259 179.04168 
L 265.103856 188.847372 
L 273.643648 177.525193 
L 276.490245 159.162996 
L 279.336842 142.159751 
L 282.183439 155.06982 
L 285.030036 158.900604 
L 293.569827 151.966017 
L 296.416424 134.102662 
L 299.263022 140.925004 
L 302.109619 142.696972 
L 304.956216 160.151652 
L 313.496007 178.837924 
L 316.342604 164.098762 
L 319.189201 140.072548 
L 322.035799 139.905052 
L 324.882396 121.367273 
L 333.422187 113.666484 
L 336.268784 123.515281 
L 339.115381 115.833329 
L 339.115381 105.572247 
L 339.115381 105.572247 
L 336.268784 105.572247 
L 333.422187 105.572247 
L 324.882396 105.572247 
L 322.035799 105.572247 
L 319.189201 105.572247 
L 316.342604 105.572247 
L 313.496007 105.572247 
L 304.956216 105.572247 
L 302.109619 105.572247 
L 299.263022 105.572247 
L 296.416424 105.572247 
L 293.569827 105.572247 
L 285.030036 105.572247 
L 282.183439 105.572247 
L 279.336842 105.572247 
L 276.490245 105.572247 
L 273.643648 105.572247 
L 265.103856 105.572247 
L 262.257259 105.572247 
L 259.410662 105.572247 
L 256.564065 105.572247 
L 253.717468 105.572247 
L 245.177676 105.572247 
L 242.331079 105.572247 
L 239.484482 105.572247 
L 236.637885 105.572247 
L 233.791288 105.572247 
L 225.251497 105.572247 
L 222.404899 105.572247 
L 219.558302 105.572247 
L 216.711705 105.572247 
L 213.865108 105.572247 
L 205.325317 105.572247 
L 202.47872 105.572247 
L 199.632122 105.572247 
L 196.785525 105.572247 
L 193.938928 105.572247 
L 185.399137 105.572247 
L 182.55254 105.572247 
L 179.705943 105.572247 
L 176.859346 105.572247 
L 174.012748 105.572247 
L 165.472957 105.572247 
L 162.62636 105.572247 
L 159.779763 105.572247 
L 156.933166 105.572247 
L 154.086569 105.572247 
L 145.546777 105.572247 
L 142.70018 105.572247 
L 139.853583 105.572247 
L 137.006986 105.572247 
L 134.160389 105.572247 
L 125.620597 105.572247 
L 122.774 105.572247 
z
" clip-path="url(#pd2766cb928)" style="fill: #f85149; fill-opacity: 0.12; stroke: #f85149; stroke-opacity: 0.12"/>
    <path d="M 376.121144 105.572247 
L 376.121144 119.82788 
L 378.967741 122.225042 
L 381.814338 114.608603 
L 381.814338 105.572247 
L 381.814338 105.572247 
L 378.967741 105.572247 
L 376.121144 105.572247 
z
" clip-path="url(#pd2766cb928)" style="fill: #f85149; fill-opacity: 0.12; stroke: #f85149; stroke-opacity: 0.12"/>
    <path d="M 396.047324 105.572247 
L 396.047324 108.081132 
L 398.893921 115.459488 
L 398.893921 105.572247 
L 398.893921 105.572247 
L 396.047324 105.572247 
z
" clip-path="url(#pd2766cb928)" style="fill: #f85149; fill-opacity: 0.12; stroke: #f85149; stroke-opacity: 0.12"/>
    <path d="M 458.67246 105.572247 
L 458.67246 111.379257 
L 461.519057 115.195262 
L 464.365654 118.123723 
L 472.905446 126.189712 
L 475.752043 127.073055 
L 478.59864 121.676495 
L 478.59864 105.572247 
L 478.59864 105.572247 
L 475.752043 105.572247 
L 472.905446 105.572247 
L 464.365654 105.572247 
L 461.519057 105.572247 
L 458.67246 105.572247 
z
" clip-path="url(#pd2766cb928)" style="fill: #f85149; fill-opacity: 0.12; stroke: #f85149; stroke-opacity: 0.12"/>
    <path d="M 498.52482 105.572247 
L 498.52482 113.865599 
L 501.371417 113.244102 
L 504.218014 111.646919 
L 504.218014 105.572247 
L 504.218014 105.572247 
L 501.371417 105.572247 
L 498.52482 105.572247 
z
" clip-path="url(#pd2766cb928)" style="fill: #f85149; fill-opacity: 0.12; stroke: #f85149; stroke-opacity: 0.12"/>
   </g>
   <g id="matplotlib.axis_1">
    <g id="xtick_1">
     <g id="line2d_1">
      <defs>
       <path id="mf664afe0f5" d="M 0 0 
L 0 3.5 
" style="stroke: #8b949e; stroke-width: 0.8"/>
      </defs>
      <g>
       <use xlink:href="#mf664afe0f5" x="60.148864" y="196.718281" style="fill: #8b949e; stroke: #8b949e; stroke-width: 0.8"/>
      </g>
     </g>
     <g id="text_1">
      <!-- 2025-10 -->
      <g style="fill: #8b949e" transform="translate(43.435739 209.797031) scale(0.08 -0.08)">
       <defs>
        <path id="DejaVuSans-32" d="M 1228 531 
L 3431 531 
L 3431 0 
L 469 0 
L 469 531 
Q 828 903 1448 1529 
Q 2069 2156 2228 2338 
Q 2531 2678 2651 2914 
Q 2772 3150 2772 3378 
Q 2772 3750 2511 3984 
Q 2250 4219 1831 4219 
Q 1534 4219 1204 4116 
Q 875 4013 500 3803 
L 500 4441 
Q 881 4594 1212 4672 
Q 1544 4750 1819 4750 
Q 2544 4750 2975 4387 
Q 3406 4025 3406 3419 
Q 3406 3131 3298 2873 
Q 3191 2616 2906 2266 
Q 2828 2175 2409 1742 
Q 1991 1309 1228 531 
z
" transform="scale(0.015625)"/>
        <path id="DejaVuSans-30" d="M 2034 4250 
Q 1547 4250 1301 3770 
Q 1056 3291 1056 2328 
Q 1056 1369 1301 889 
Q 1547 409 2034 409 
Q 2525 409 2770 889 
Q 3016 1369 3016 2328 
Q 3016 3291 2770 3770 
Q 2525 4250 2034 4250 
z
M 2034 4750 
Q 2819 4750 3233 4129 
Q 3647 3509 3647 2328 
Q 3647 1150 3233 529 
Q 2819 -91 2034 -91 
Q 1250 -91 836 529 
Q 422 1150 422 2328 
Q 422 3509 836 4129 
Q 1250 4750 2034 4750 
z
" transform="scale(0.015625)"/>
        <path id="DejaVuSans-35" d="M 691 4666 
L 3169 4666 
L 3169 4134 
L 1269 4134 
L 1269 2991 
Q 1406 3038 1543 3061 
Q 1681 3084 1819 3084 
Q 2600 3084 3056 2656 
Q 3513 2228 3513 1497 
Q 3513 744 3044 326 
Q 2575 -91 1722 -91 
Q 1428 -91 1123 -41 
Q 819 9 494 109 
L 494 744 
Q 775 591 1075 516 
Q 1375 441 1709 441 
Q 2250 441 2565 725 
Q 2881 1009 2881 1497 
Q 2881 1984 2565 2268 
Q 2250 2553 1709 2553 
Q 1456 2553 1204 2497 
Q 953 2441 691 2322 
L 691 4666 
z
" transform="scale(0.015625)"/>
        <path id="DejaVuSans-2d" d="M 313 2009 
L 1997 2009 
L 1997 1497 
L 313 1497 
L 313 2009 
z
" transform="scale(0.015625)"/>
        <path id="DejaVuSans-31" d="M 794 531 
L 1825 531 
L 1825 4091 
L 703 3866 
L 703 4441 
L 1819 4666 
L 2450 4666 
L 2450 531 
L 3481 531 
L 3481 0 
L 794 0 
L 794 531 
z
" transform="scale(0.015625)"/>
       </defs>
       <use xlink:href="#DejaVuSans-32"/>
       <use xlink:href="#DejaVuSans-30" transform="translate(63.623047 0)"/>
       <use xlink:href="#DejaVuSans-32" transform="translate(127.246094 0)"/>
       <use xlink:href="#DejaVuSans-35" transform="translate(190.869141 0)"/>
       <use xlink:href="#DejaVuSans-2d" transform="translate(254.492188 0)"/>
       <use xlink:href="#DejaVuSans-31" transform="translate(290.576172 0)"/>
       <use xlink:href="#DejaVuSans-30" transform="translate(354.199219 0)"/>
      </g>
     </g>
    </g>
    <g id="xtick_2">
     <g id="line2d_2">
      <g>
       <use xlink:href="#mf664afe0f5" x="148.393374" y="196.718281" style="fill: #8b949e; stroke: #8b949e; stroke-width: 0.8"/>
      </g>
     </g>
     <g id="text_2">
      <!-- 2025-11 -->
      <g style="fill: #8b949e" transform="translate(131.680249 209.797031) scale(0.08 -0.08)">
       <use xlink:href="#DejaVuSans-32"/>
       <use xlink:href="#DejaVuSans-30" transform="translate(63.623047 0)"/>
       <use xlink:href="#DejaVuSans-32" transform="translate(127.246094 0)"/>
       <use xlink:href="#DejaVuSans-35" transform="translate(190.869141 0)"/>
       <use xlink:href="#DejaVuSans-2d" transform="translate(254.492188 0)"/>
       <use xlink:href="#DejaVuSans-31" transform="translate(290.576172 0)"/>
       <use xlink:href="#DejaVuSans-31" transform="translate(354.199219 0)"/>
      </g>
     </g>
    </g>
    <g id="xtick_3">
     <g id="line2d_3">
      <g>
       <use xlink:href="#mf664afe0f5" x="233.791288" y="196.718281" style="fill: #8b949e; stroke: #8b949e; stroke-width: 0.8"/>
      </g>
     </g>
     <g id="text_3">
      <!-- 2025-12 -->
      <g style="fill: #8b949e" transform="translate(217.078163 209.797031) scale(0.08 -0.08)">
       <use xlink:href="#DejaVuSans-32"/>
       <use xlink:href="#DejaVuSans-30" transform="translate(63.623047 0)"/>
       <use xlink:href="#DejaVuSans-32" transform="translate(127.246094 0)"/>
       <use xlink:href="#DejaVuSans-35" transform="translate(190.869141 0)"/>
       <use xlink:href="#DejaVuSans-2d" transform="translate(254.492188 0)"/>
       <use xlink:href="#DejaVuSans-31" transform="translate(290.576172 0)"/>
       <use xlink:href="#DejaVuSans-32" transform="translate(354.199219 0)"/>
      </g>
     </g>
    </g>
    <g id="xtick_4">
     <g id="line2d_4">
      <g>
       <use xlink:href="#mf664afe0f5" x="322.035799" y="196.718281" style="fill: #8b949e; stroke: #8b949e; stroke-width: 0.8"/>
      </g>
     </g>
     <g id="text_4">
      <!-- 2026-01 -->
      <g style="fill: #8b949e" transform="translate(305.322674 209.797031) scale(0.08 -0.08)">
       <defs>
        <path id="DejaVuSans-36" d="M 2113 2584 
Q 1688 2584 1439 2293 
Q 1191 2003 1191 1497 
Q 1191 994 1439 701 
Q 1688 409 2113 409 
Q 2538 409 2786 701 
Q 3034 994 3034 1497 
Q 3034 2003 2786 2293 
Q 2538 2584 2113 2584 
z
M 3366 4563 
L 3366 3988 
Q 3128 4100 2886 4159 
Q 2644 4219 2406 4219 
Q 1781 4219 1451 3797 
Q 1122 3375 1075 2522 
Q 1259 2794 1537 2939 
Q 1816 3084 2150 3084 
Q 2853 3084 3261 2657 
Q 3669 2231 3669 1497 
Q 3669 778 3244 343 
Q 2819 -91 2113 -91 
Q 1303 -91 875 529 
Q 447 1150 447 2328 
Q 447 3434 972 4092 
Q 1497 4750 2381 4750 
Q 2619 4750 2861 4703 
Q 3103 4656 3366 4563 
z
" transform="scale(0.015625)"/>
       </defs>
       <use xlink:href="#DejaVuSans-32"/>
       <use xlink:href="#DejaVuSans-30" transform="translate(63.623047 0)"/>
       <use xlink:href="#DejaVuSans-32" transform="translate(127.246094 0)"/>
       <use xlink:href="#DejaVuSans-36" transform="translate(190.869141 0)"/>
       <use xlink:href="#DejaVuSans-2d" transform="translate(254.492188 0)"/>
       <use xlink:href="#DejaVuSans-30" transform="translate(290.576172 0)"/>
       <use xlink:href="#DejaVuSans-31" transform="translate(354.199219 0)"/>
      </g>
     </g>
    </g>
    <g id="xtick_5">
     <g id="line2d_5">
      <g>
       <use xlink:href="#mf664afe0f5" x="410.280309" y="196.718281" style="fill: #8b949e; stroke: #8b949e; stroke-width: 0.8"/>
      </g>
     </g>
     <g id="text_5">
      <!-- 2026-02 -->
      <g style="fill: #8b949e" transform="translate(393.567184 209.797031) scale(0.08 -0.08)">
       <use xlink:href="#DejaVuSans-32"/>
       <use xlink:href="#DejaVuSans-30" transform="translate(63.623047 0)"/>
       <use xlink:href="#DejaVuSans-32" transform="translate(127.246094 0)"/>
       <use xlink:href="#DejaVuSans-36" transform="translate(190.869141 0)"/>
       <use xlink:href="#DejaVuSans-2d" transform="translate(254.492188 0)"/>
       <use xlink:href="#DejaVuSans-30" transform="translate(290.576172 0)"/>
       <use xlink:href="#DejaVuSans-32" transform="translate(354.199219 0)"/>
      </g>
     </g>
    </g>
    <g id="xtick_6">
     <g id="line2d_6">
      <g>
       <use xlink:href="#mf664afe0f5" x="489.985029" y="196.718281" style="fill: #8b949e; stroke: #8b949e; stroke-width: 0.8"/>
      </g>
     </g>
     <g id="text_6">
      <!-- 2026-03 -->
      <g style="fill: #8b949e" transform="translate(473.271904 209.797031) scale(0.08 -0.08)">
       <defs>
        <path id="DejaVuSans-33" d="M 2597 2516 
Q 3050 2419 3304 2112 
Q 3559 1806 3559 1356 
Q 3559 666 3084 287 
Q 2609 -91 1734 -91 
Q 1441 -91 1130 -33 
Q 819 25 488 141 
L 488 750 
Q 750 597 1062 519 
Q 1375 441 1716 441 
Q 2309 441 2620 675 
Q 2931 909 2931 1356 
Q 2931 1769 2642 2001 
Q 2353 2234 1838 2234 
L 1294 2234 
L 1294 2753 
L 1863 2753 
Q 2328 2753 2575 2939 
Q 2822 3125 2822 3475 
Q 2822 3834 2567 4026 
Q 2313 4219 1838 4219 
Q 1578 4219 1281 4162 
Q 984 4106 628 3988 
L 628 4550 
Q 988 4650 1302 4700 
Q 1616 4750 1894 4750 
Q 2613 4750 3031 4423 
Q 3450 4097 3450 3541 
Q 3450 3153 3228 2886 
Q 3006 2619 2597 2516 
z
" transform="scale(0.015625)"/>
       </defs>
       <use xlink:href="#DejaVuSans-32"/>
       <use xlink:href="#DejaVuSans-30" transform="translate(63.623047 0)"/>
       <use xlink:href="#DejaVuSans-32" transform="translate(127.246094 0)"/>
       <use xlink:href="#DejaVuSans-36" transform="translate(190.869141 0)"/>
       <use xlink:href="#DejaVuSans-2d" transform="translate(254.492188 0)"/>
       <use xlink:href="#DejaVuSans-30" transform="translate(290.576172 0)"/>
       <use xlink:href="#DejaVuSans-33" transform="translate(354.199219 0)"/>
      </g>
     </g>
    </g>
    <g id="xtick_7">
     <g id="line2d_7">
      <g>
       <use xlink:href="#mf664afe0f5" x="578.229539" y="196.718281" style="fill: #8b949e; stroke: #8b949e; stroke-width: 0.8"/>
      </g>
     </g>
     <g id="text_7">
      <!-- 2026-04 -->
      <g style="fill: #8b949e" transform="translate(561.516414 209.797031) scale(0.08 -0.08)">
       <defs>
        <path id="DejaVuSans-34" d="M 2419 4116 
L 825 1625 
L 2419 1625 
L 2419 4116 
z
M 2253 4666 
L 3047 4666 
L 3047 1625 
L 3713 1625 
L 3713 1100 
L 3047 1100 
L 3047 0 
L 2419 0 
L 2419 1100 
L 313 1100 
L 313 1709 
L 2253 4666 
z
" transform="scale(0.015625)"/>
       </defs>
       <use xlink:href="#DejaVuSans-32"/>
       <use xlink:href="#DejaVuSans-30" transform="translate(63.623047 0)"/>
       <use xlink:href="#DejaVuSans-32" transform="translate(127.246094 0)"/>
       <use xlink:href="#DejaVuSans-36" transform="translate(190.869141 0)"/>
       <use xlink:href="#DejaVuSans-2d" transform="translate(254.492188 0)"/>
       <use xlink:href="#DejaVuSans-30" transform="translate(290.576172 0)"/>
       <use xlink:href="#DejaVuSans-34" transform="translate(354.199219 0)"/>
      </g>
     </g>
    </g>
   </g>
   <g id="matplotlib.axis_2">
    <g id="ytick_1">
     <g id="line2d_8">
      <defs>
       <path id="mfbefe17f2b" d="M 0 0 
L -3.5 0 
" style="stroke: #8b949e; stroke-width: 0.8"/>
      </defs>
      <g>
       <use xlink:href="#mfbefe17f2b" x="34.1025" y="178.265984" style="fill: #8b949e; stroke: #8b949e; stroke-width: 0.8"/>
      </g>
     </g>
     <g id="text_8">
      <!-- €47k -->
      <g style="fill: #8b949e" transform="translate(7.2 181.305359) scale(0.08 -0.08)">
       <defs>
        <path id="DejaVuSans-20ac" d="M 3647 4306 
L 3647 3641 
Q 3363 3969 3098 4109 
Q 2834 4250 2516 4250 
Q 2025 4250 1709 3937 
Q 1394 3625 1294 3041 
L 3097 3041 
L 2925 2656 
L 1244 2656 
Q 1238 2581 1236 2509 
Q 1234 2438 1234 2328 
Q 1234 2228 1236 2156 
Q 1238 2084 1244 2009 
L 2638 2009 
L 2463 1625 
L 1294 1625 
Q 1394 1041 1709 725 
Q 2025 409 2516 409 
Q 2834 409 3098 550 
Q 3363 691 3647 1019 
L 3647 359 
Q 3369 134 3080 21 
Q 2791 -91 2491 -91 
Q 1750 -91 1267 362 
Q 784 816 659 1625 
L 0 1625 
L 172 2009 
L 606 2009 
Q 606 2081 604 2154 
Q 603 2228 603 2328 
Q 603 2438 604 2511 
Q 606 2584 606 2656 
L 0 2656 
L 172 3041 
L 659 3041 
Q 784 3844 1268 4297 
Q 1753 4750 2491 4750 
Q 2797 4750 3086 4639 
Q 3375 4528 3647 4306 
z
" transform="scale(0.015625)"/>
        <path id="DejaVuSans-37" d="M 525 4666 
L 3525 4666 
L 3525 4397 
L 1831 0 
L 1172 0 
L 2766 4134 
L 525 4134 
L 525 4666 
z
" transform="scale(0.015625)"/>
        <path id="DejaVuSans-6b" d="M 581 4863 
L 1159 4863 
L 1159 1991 
L 2875 3500 
L 3609 3500 
L 1753 1863 
L 3688 0 
L 2938 0 
L 1159 1709 
L 1159 0 
L 581 0 
L 581 4863 
z
" transform="scale(0.015625)"/>
       </defs>
       <use xlink:href="#DejaVuSans-20ac"/>
       <use xlink:href="#DejaVuSans-34" transform="translate(63.623047 0)"/>
       <use xlink:href="#DejaVuSans-37" transform="translate(127.246094 0)"/>
       <use xlink:href="#DejaVuSans-6b" transform="translate(190.869141 0)"/>
      </g>
     </g>
    </g>
    <g id="ytick_2">
     <g id="line2d_9">
      <g>
       <use xlink:href="#mfbefe17f2b" x="34.1025" y="155.484518" style="fill: #8b949e; stroke: #8b949e; stroke-width: 0.8"/>
      </g>
     </g>
     <g id="text_9">
      <!-- €48k -->
      <g style="fill: #8b949e" transform="translate(7.2 158.523893) scale(0.08 -0.08)">
       <defs>
        <path id="DejaVuSans-38" d="M 2034 2216 
Q 1584 2216 1326 1975 
Q 1069 1734 1069 1313 
Q 1069 891 1326 650 
Q 1584 409 2034 409 
Q 2484 409 2743 651 
Q 3003 894 3003 1313 
Q 3003 1734 2745 1975 
Q 2488 2216 2034 2216 
z
M 1403 2484 
Q 997 2584 770 2862 
Q 544 3141 544 3541 
Q 544 4100 942 4425 
Q 1341 4750 2034 4750 
Q 2731 4750 3128 4425 
Q 3525 4100 3525 3541 
Q 3525 3141 3298 2862 
Q 3072 2584 2669 2484 
Q 3125 2378 3379 2068 
Q 3634 1759 3634 1313 
Q 3634 634 3220 271 
Q 2806 -91 2034 -91 
Q 1263 -91 848 271 
Q 434 634 434 1313 
Q 434 1759 690 2068 
Q 947 2378 1403 2484 
z
M 1172 3481 
Q 1172 3119 1398 2916 
Q 1625 2713 2034 2713 
Q 2441 2713 2670 2916 
Q 2900 3119 2900 3481 
Q 2900 3844 2670 4047 
Q 2441 4250 2034 4250 
Q 1625 4250 1398 4047 
Q 1172 3844 1172 3481 
z
" transform="scale(0.015625)"/>
       </defs>
       <use xlink:href="#DejaVuSans-20ac"/>
       <use xlink:href="#DejaVuSans-34" transform="translate(63.623047 0)"/>
       <use xlink:href="#DejaVuSans-38" transform="translate(127.246094 0)"/>
       <use xlink:href="#DejaVuSans-6b" transform="translate(190.869141 0)"/>
      </g>
     </g>
    </g>
    <g id="ytick_3">
     <g id="line2d_10">
      <g>
       <use xlink:href="#mfbefe17f2b" x="34.1025" y="132.703052" style="fill: #8b949e; stroke: #8b949e; stroke-width: 0.8"/>
      </g>
     </g>
     <g id="text_10">
      <!-- €49k -->
      <g style="fill: #8b949e" transform="translate(7.2 135.742427) scale(0.08 -0.08)">
       <defs>
        <path id="DejaVuSans-39" d="M 703 97 
L 703 672 
Q 941 559 1184 500 
Q 1428 441 1663 441 
Q 2288 441 2617 861 
Q 2947 1281 2994 2138 
Q 2813 1869 2534 1725 
Q 2256 1581 1919 1581 
Q 1219 1581 811 2004 
Q 403 2428 403 3163 
Q 403 3881 828 4315 
Q 1253 4750 1959 4750 
Q 2769 4750 3195 4129 
Q 3622 3509 3622 2328 
Q 3622 1225 3098 567 
Q 2575 -91 1691 -91 
Q 1453 -91 1209 -44 
Q 966 3 703 97 
z
M 1959 2075 
Q 2384 2075 2632 2365 
Q 2881 2656 2881 3163 
Q 2881 3666 2632 3958 
Q 2384 4250 1959 4250 
Q 1534 4250 1286 3958 
Q 1038 3666 1038 3163 
Q 1038 2656 1286 2365 
Q 1534 2075 1959 2075 
z
" transform="scale(0.015625)"/>
       </defs>
       <use xlink:href="#DejaVuSans-20ac"/>
       <use xlink:href="#DejaVuSans-34" transform="translate(63.623047 0)"/>
       <use xlink:href="#DejaVuSans-39" transform="translate(127.246094 0)"/>
       <use xlink:href="#DejaVuSans-6b" transform="translate(190.869141 0)"/>
      </g>
     </g>
    </g>
    <g id="ytick_4">
     <g id="line2d_11">
      <g>
       <use xlink:href="#mfbefe17f2b" x="34.1025" y="109.921586" style="fill: #8b949e; stroke: #8b949e; stroke-width: 0.8"/>
      </g>
     </g>
     <g id="text_11">
      <!-- €50k -->
      <g style="fill: #8b949e" transform="translate(7.2 112.960961) scale(0.08 -0.08)">
       <use xlink:href="#DejaVuSans-20ac"/>
       <use xlink:href="#DejaVuSans-35" transform="translate(63.623047 0)"/>
       <use xlink:href="#DejaVuSans-30" transform="translate(127.246094 0)"/>
       <use xlink:href="#DejaVuSans-6b" transform="translate(190.869141 0)"/>
      </g>
     </g>
    </g>
    <g id="ytick_5">
     <g id="line2d_12">
      <g>
       <use xlink:href="#mfbefe17f2b" x="34.1025" y="87.14012" style="fill: #8b949e; stroke: #8b949e; stroke-width: 0.8"/>
      </g>
     </g>
     <g id="text_12">
      <!-- €51k -->
      <g style="fill: #8b949e" transform="translate(7.2 90.179495) scale(0.08 -0.08)">
       <use xlink:href="#DejaVuSans-20ac"/>
       <use xlink:href="#DejaVuSans-35" transform="translate(63.623047 0)"/>
       <use xlink:href="#DejaVuSans-31" transform="translate(127.246094 0)"/>
       <use xlink:href="#DejaVuSans-6b" transform="translate(190.869141 0)"/>
      </g>
     </g>
    </g>
    <g id="ytick_6">
     <g id="line2d_13">
      <g>
       <use xlink:href="#mfbefe17f2b" x="34.1025" y="64.358654" style="fill: #8b949e; stroke: #8b949e; stroke-width: 0.8"/>
      </g>
     </g>
     <g id="text_13">
      <!-- €52k -->
      <g style="fill: #8b949e" transform="translate(7.2 67.398029) scale(0.08 -0.08)">
       <use xlink:href="#DejaVuSans-20ac"/>
       <use xlink:href="#DejaVuSans-35" transform="translate(63.623047 0)"/>
       <use xlink:href="#DejaVuSans-32" transform="translate(127.246094 0)"/>
       <use xlink:href="#DejaVuSans-6b" transform="translate(190.869141 0)"/>
      </g>
     </g>
    </g>
    <g id="ytick_7">
     <g id="line2d_14">
      <g>
       <use xlink:href="#mfbefe17f2b" x="34.1025" y="41.577188" style="fill: #8b949e; stroke: #8b949e; stroke-width: 0.8"/>
      </g>
     </g>
     <g id="text_14">
      <!-- €53k -->
      <g style="fill: #8b949e" transform="translate(7.2 44.616563) scale(0.08 -0.08)">
       <use xlink:href="#DejaVuSans-20ac"/>
       <use xlink:href="#DejaVuSans-35" transform="translate(63.623047 0)"/>
       <use xlink:href="#DejaVuSans-33" transform="translate(127.246094 0)"/>
       <use xlink:href="#DejaVuSans-6b" transform="translate(190.869141 0)"/>
      </g>
     </g>
    </g>
   </g>
   <g id="line2d_15">
    <path d="M 34.1025 105.572247 
L 607.1225 105.572247 
" clip-path="url(#pd2766cb928)" style="fill: none; stroke-dasharray: 2.96,1.28; stroke-dashoffset: 0; stroke: #21262d; stroke-width: 0.8"/>
   </g>
   <g id="patch_3">
    <path d="M 34.1025 196.718281 
L 34.1025 23.558281 
" style="fill: none; stroke: #21262d; stroke-width: 0.8; stroke-linejoin: miter; stroke-linecap: square"/>
   </g>
   <g id="patch_4">
    <path d="M 607.1225 196.718281 
L 607.1225 23.558281 
" style="fill: none; stroke: #21262d; stroke-width: 0.8; stroke-linejoin: miter; stroke-linecap: square"/>
   </g>
   <g id="patch_5">
    <path d="M 34.1025 196.718281 
L 607.1225 196.718281 
" style="fill: none; stroke: #21262d; stroke-width: 0.8; stroke-linejoin: miter; stroke-linecap: square"/>
   </g>
   <g id="patch_6">
    <path d="M 34.1025 23.558281 
L 607.1225 23.558281 
" style="fill: none; stroke: #21262d; stroke-width: 0.8; stroke-linejoin: miter; stroke-linecap: square"/>
   </g>
   <g id="line2d_16">
    <path d="M 60.148864 105.572247 
L 62.995461 105.998223 
L 65.842058 100.494986 
L 74.381849 88.330078 
L 80.075043 90.662673 
L 82.921641 77.964103 
L 85.768238 71.400394 
L 94.308029 74.413306 
L 97.154626 69.572978 
L 102.84782 75.524331 
L 105.694418 73.016682 
L 114.234209 87.231494 
L 117.080806 99.830188 
L 119.927403 103.474302 
L 122.774 110.513165 
L 125.620597 107.537137 
L 134.160389 113.761459 
L 137.006986 123.730176 
L 139.853583 112.23753 
L 142.70018 113.31759 
L 145.546777 112.198169 
L 156.933166 125.713778 
L 159.779763 124.284864 
L 162.62636 132.221445 
L 165.472957 128.849229 
L 174.012748 132.684849 
L 176.859346 134.231138 
L 179.705943 138.056186 
L 182.55254 123.875013 
L 185.399137 123.367676 
L 193.938928 130.61772 
L 196.785525 123.942354 
L 199.632122 132.400013 
L 202.47872 130.257826 
L 205.325317 144.123255 
L 213.865108 153.21196 
L 216.711705 151.196504 
L 219.558302 137.328692 
L 222.404899 132.994225 
L 225.251497 133.575643 
L 233.791288 137.342411 
L 236.637885 161.253209 
L 239.484482 171.940925 
L 242.331079 178.224282 
L 245.177676 159.443306 
L 253.717468 152.304867 
L 256.564065 180.699069 
L 259.410662 174.021266 
L 262.257259 179.04168 
L 265.103856 188.847372 
L 273.643648 177.525193 
L 276.490245 159.162996 
L 279.336842 142.159751 
L 282.183439 155.06982 
L 285.030036 158.900604 
L 293.569827 151.966017 
L 296.416424 134.102662 
L 299.263022 140.925004 
L 302.109619 142.696972 
L 304.956216 160.151652 
L 313.496007 178.837924 
L 316.342604 164.098762 
L 319.189201 140.072548 
L 322.035799 139.905052 
L 324.882396 121.367273 
L 333.422187 113.666484 
L 336.268784 123.515281 
L 339.115381 115.833329 
L 341.961978 87.565749 
L 344.808576 86.743133 
L 353.348367 57.273645 
L 356.194964 103.850967 
L 359.041561 87.913657 
L 361.888158 84.894236 
L 364.734755 88.787819 
L 373.274547 85.686451 
L 376.121144 119.82788 
L 378.967741 122.225042 
L 381.814338 114.608603 
L 384.660935 87.361134 
L 393.200727 95.168894 
L 396.047324 108.081132 
L 398.893921 115.459488 
L 401.740518 98.051567 
L 404.587115 90.77442 
L 413.126906 98.764181 
L 415.973503 88.2231 
L 418.820101 86.167295 
L 421.666698 74.07437 
L 424.513295 81.288764 
L 433.053086 84.130792 
L 435.899683 87.709104 
L 438.74628 103.594098 
L 441.592878 99.308477 
L 444.439475 95.405927 
L 452.979266 94.413121 
L 455.825863 96.159325 
L 458.67246 111.379257 
L 461.519057 115.195262 
L 464.365654 118.123723 
L 472.905446 126.189712 
L 475.752043 127.073055 
L 478.59864 121.676495 
L 481.445237 99.71268 
L 484.291834 96.795434 
L 492.831626 92.924333 
L 495.678223 92.839956 
L 498.52482 113.865599 
L 501.371417 113.244102 
L 504.218014 111.646919 
L 512.757806 82.990189 
L 515.604403 84.266234 
L 518.451 79.845718 
L 521.297597 79.300481 
L 524.144194 91.886291 
L 532.683985 77.857569 
L 535.530582 68.190841 
L 538.37718 57.987257 
L 541.223777 67.745107 
L 544.070374 50.383495 
L 552.610165 66.047338 
L 555.456762 58.216361 
L 558.303359 31.42919 
L 561.149957 42.382788 
L 563.996554 48.170119 
L 572.536345 46.012779 
L 575.382942 51.034519 
L 578.229539 68.454741 
L 581.076136 66.697184 
L 581.076136 66.697184 
" clip-path="url(#pd2766cb928)" style="fill: none; stroke: #3fb950; stroke-width: 1.8; stroke-linecap: square"/>
   </g>
   <g id="text_15">
    <!-- Portfolio Equity Curve -->
    <g style="fill: #e6edf3" transform="translate(252.222578 15.558281) scale(0.11 -0.11)">
     <defs>
      <path id="DejaVuSans-Bold-50" d="M 588 4666 
L 2584 4666 
Q 3475 4666 3951 4270 
Q 4428 3875 4428 3144 
Q 4428 2409 3951 2014 
Q 3475 1619 2584 1619 
L 1791 1619 
L 1791 0 
L 588 0 
L 588 4666 
z
M 1791 3794 
L 1791 2491 
L 2456 2491 
Q 2806 2491 2997 2661 
Q 3188 2831 3188 3144 
Q 3188 3456 2997 3625 
Q 2806 3794 2456 3794 
L 1791 3794 
z
" transform="scale(0.015625)"/>
      <path id="DejaVuSans-Bold-6f" d="M 2203 2784 
Q 1831 2784 1636 2517 
Q 1441 2250 1441 1747 
Q 1441 1244 1636 976 
Q 1831 709 2203 709 
Q 2569 709 2762 976 
Q 2956 1244 2956 1747 
Q 2956 2250 2762 2517 
Q 2569 2784 2203 2784 
z
M 2203 3584 
Q 3106 3584 3614 3096 
Q 4122 2609 4122 1747 
Q 4122 884 3614 396 
Q 3106 -91 2203 -91 
Q 1297 -91 786 396 
Q 275 884 275 1747 
Q 275 2609 786 3096 
Q 1297 3584 2203 3584 
z
" transform="scale(0.015625)"/>
      <path id="DejaVuSans-Bold-72" d="M 3138 2547 
Q 2991 2616 2845 2648 
Q 2700 2681 2553 2681 
Q 2122 2681 1889 2404 
Q 1656 2128 1656 1613 
L 1656 0 
L 538 0 
L 538 3500 
L 1656 3500 
L 1656 2925 
Q 1872 3269 2151 3426 
Q 2431 3584 2822 3584 
Q 2878 3584 2943 3579 
Q 3009 3575 3134 3559 
L 3138 2547 
z
" transform="scale(0.015625)"/>
      <path id="DejaVuSans-Bold-74" d="M 1759 4494 
L 1759 3500 
L 2913 3500 
L 2913 2700 
L 1759 2700 
L 1759 1216 
Q 1759 972 1856 886 
Q 1953 800 2241 800 
L 2816 800 
L 2816 0 
L 1856 0 
Q 1194 0 917 276 
Q 641 553 641 1216 
L 641 2700 
L 84 2700 
L 84 3500 
L 641 3500 
L 641 4494 
L 1759 4494 
z
" transform="scale(0.015625)"/>
      <path id="DejaVuSans-Bold-66" d="M 2841 4863 
L 2841 4128 
L 2222 4128 
Q 1984 4128 1890 4042 
Q 1797 3956 1797 3744 
L 1797 3500 
L 2753 3500 
L 2753 2700 
L 1797 2700 
L 1797 0 
L 678 0 
L 678 2700 
L 122 2700 
L 122 3500 
L 678 3500 
L 678 3744 
Q 678 4316 997 4589 
Q 1316 4863 1984 4863 
L 2841 4863 
z
" transform="scale(0.015625)"/>
      <path id="DejaVuSans-Bold-6c" d="M 538 4863 
L 1656 4863 
L 1656 0 
L 538 0 
L 538 4863 
z
" transform="scale(0.015625)"/>
      <path id="DejaVuSans-Bold-69" d="M 538 3500 
L 1656 3500 
L 1656 0 
L 538 0 
L 538 3500 
z
M 538 4863 
L 1656 4863 
L 1656 3950 
L 538 3950 
L 538 4863 
z
" transform="scale(0.015625)"/>
      <path id="DejaVuSans-Bold-20" transform="scale(0.015625)"/>
      <path id="DejaVuSans-Bold-45" d="M 588 4666 
L 3834 4666 
L 3834 3756 
L 1791 3756 
L 1791 2888 
L 3713 2888 
L 3713 1978 
L 1791 1978 
L 1791 909 
L 3903 909 
L 3903 0 
L 588 0 
L 588 4666 
z
" transform="scale(0.015625)"/>
      <path id="DejaVuSans-Bold-71" d="M 2181 2772 
Q 1825 2772 1636 2509 
Q 1447 2247 1447 1747 
Q 1447 1247 1636 984 
Q 1825 722 2181 722 
Q 2541 722 2730 984 
Q 2919 1247 2919 1747 
Q 2919 2247 2730 2509 
Q 2541 2772 2181 2772 
z
M 2919 506 
Q 2688 197 2409 53 
Q 2131 -91 1766 -91 
Q 1119 -91 703 423 
Q 288 938 288 1747 
Q 288 2556 703 3067 
Q 1119 3578 1766 3578 
Q 2131 3578 2409 3434 
Q 2688 3291 2919 2981 
L 2919 3500 
L 4044 3500 
L 4044 -1331 
L 2919 -1331 
L 2919 506 
z
" transform="scale(0.015625)"/>
      <path id="DejaVuSans-Bold-75" d="M 500 1363 
L 500 3500 
L 1625 3500 
L 1625 3150 
Q 1625 2866 1622 2436 
Q 1619 2006 1619 1863 
Q 1619 1441 1641 1255 
Q 1663 1069 1716 984 
Q 1784 875 1895 815 
Q 2006 756 2150 756 
Q 2500 756 2700 1025 
Q 2900 1294 2900 1772 
L 2900 3500 
L 4019 3500 
L 4019 0 
L 2900 0 
L 2900 506 
Q 2647 200 2364 54 
Q 2081 -91 1741 -91 
Q 1134 -91 817 281 
Q 500 653 500 1363 
z
" transform="scale(0.015625)"/>
      <path id="DejaVuSans-Bold-79" d="M 78 3500 
L 1197 3500 
L 2138 1125 
L 2938 3500 
L 4056 3500 
L 2584 -331 
Q 2363 -916 2067 -1148 
Q 1772 -1381 1288 -1381 
L 641 -1381 
L 641 -647 
L 991 -647 
Q 1275 -647 1404 -556 
Q 1534 -466 1606 -231 
L 1638 -134 
L 78 3500 
z
" transform="scale(0.015625)"/>
      <path id="DejaVuSans-Bold-43" d="M 4288 256 
Q 3956 84 3597 -3 
Q 3238 -91 2847 -91 
Q 1681 -91 1000 561 
Q 319 1213 319 2328 
Q 319 3447 1000 4098 
Q 1681 4750 2847 4750 
Q 3238 4750 3597 4662 
Q 3956 4575 4288 4403 
L 4288 3438 
Q 3953 3666 3628 3772 
Q 3303 3878 2944 3878 
Q 2300 3878 1931 3465 
Q 1563 3053 1563 2328 
Q 1563 1606 1931 1193 
Q 2300 781 2944 781 
Q 3303 781 3628 887 
Q 3953 994 4288 1222 
L 4288 256 
z
" transform="scale(0.015625)"/>
      <path id="DejaVuSans-Bold-76" d="M 97 3500 
L 1216 3500 
L 2088 1081 
L 2956 3500 
L 4078 3500 
L 2700 0 
L 1472 0 
L 97 3500 
z
" transform="scale(0.015625)"/>
      <path id="DejaVuSans-Bold-65" d="M 4031 1759 
L 4031 1441 
L 1416 1441 
Q 1456 1047 1700 850 
Q 1944 653 2381 653 
Q 2734 653 3104 758 
Q 3475 863 3866 1075 
L 3866 213 
Q 3469 63 3072 -14 
Q 2675 -91 2278 -91 
Q 1328 -91 801 392 
Q 275 875 275 1747 
Q 275 2603 792 3093 
Q 1309 3584 2216 3584 
Q 3041 3584 3536 3087 
Q 4031 2591 4031 1759 
z
M 2881 2131 
Q 2881 2450 2695 2645 
Q 2509 2841 2209 2841 
Q 1884 2841 1681 2658 
Q 1478 2475 1428 2131 
L 2881 2131 
z
" transform="scale(0.015625)"/>
     </defs>
     <use xlink:href="#DejaVuSans-Bold-50"/>
     <use xlink:href="#DejaVuSans-Bold-6f" transform="translate(73.291016 0)"/>
     <use xlink:href="#DejaVuSans-Bold-72" transform="translate(141.992188 0)"/>
     <use xlink:href="#DejaVuSans-Bold-74" transform="translate(191.308594 0)"/>
     <use xlink:href="#DejaVuSans-Bold-66" transform="translate(239.111328 0)"/>
     <use xlink:href="#DejaVuSans-Bold-6f" transform="translate(282.617188 0)"/>
     <use xlink:href="#DejaVuSans-Bold-6c" transform="translate(351.318359 0)"/>
     <use xlink:href="#DejaVuSans-Bold-69" transform="translate(385.595703 0)"/>
     <use xlink:href="#DejaVuSans-Bold-6f" transform="translate(419.873047 0)"/>
     <use xlink:href="#DejaVuSans-Bold-20" transform="translate(488.574219 0)"/>
     <use xlink:href="#DejaVuSans-Bold-45" transform="translate(523.388672 0)"/>
     <use xlink:href="#DejaVuSans-Bold-71" transform="translate(591.699219 0)"/>
     <use xlink:href="#DejaVuSans-Bold-75" transform="translate(663.28125 0)"/>
     <use xlink:href="#DejaVuSans-Bold-69" transform="translate(734.472656 0)"/>
     <use xlink:href="#DejaVuSans-Bold-74" transform="translate(768.75 0)"/>
     <use xlink:href="#DejaVuSans-Bold-79" transform="translate(816.552734 0)"/>
     <use xlink:href="#DejaVuSans-Bold-20" transform="translate(881.738281 0)"/>
     <use xlink:href="#DejaVuSans-Bold-43" transform="translate(916.552734 0)"/>
     <use xlink:href="#DejaVuSans-Bold-75" transform="translate(989.941406 0)"/>
     <use xlink:href="#DejaVuSans-Bold-72" transform="translate(1061.132812 0)"/>
     <use xlink:href="#DejaVuSans-Bold-76" transform="translate(1110.449219 0)"/>
     <use xlink:href="#DejaVuSans-Bold-65" transform="translate(1175.634766 0)"/>
    </g>
   </g>
  </g>
 </g>
 <defs>
  <clipPath id="pd2766cb928">
   <rect x="34.1025" y="23.558281" width="573.02" height="173.16"/>
  </clipPath>
 </defs>
</svg>
